<?xml version="1.0" encoding="utf-8"?>
<!-- Generator: Adobe Illustrator 24.3.0, SVG Export Plug-In . SVG Version: 6.00 Build 0)  -->
<svg version="1.1" id="Layer_1" xmlns="http://www.w3.org/2000/svg" xmlns:xlink="http://www.w3.org/1999/xlink" x="0px" y="0px"
	 viewBox="0 0 144 252" style="enable-background:new 0 0 144 252;" xml:space="preserve">
<style type="text/css">
	.st0{fill:#ED1C24;}
	.st1{font-family:'CGTimes-BoldItalic';}
	.st2{font-size:15.8743px;}
</style>
<g>
	<g>
		<path class="st0" d="M27.61,87.33c2.95,0,5.63,0,8.32,0c0.01-0.15,0.02-0.3,0.02-0.46c-2.13-0.54-4.25-1.1-6.38-1.61
			c-2.82-0.68-4.86-2.01-5.77-5.06c-1.28-4.26-2.96-8.41-4.45-12.61c-0.18-0.5-0.23-1.04-0.44-2c0.6,0.45,0.91,0.62,1.14,0.86
			c6.11,6.46,13.06,11.9,20.65,16.49c5.4,3.27,11.16,5.88,17.51,6.77c2.76,0.39,4.08-0.47,5.44-3.19c-0.42-0.05-0.82-0.1-1.61-0.21
			c0.89-1.32,1.64-2.45,2.42-3.55c0.8-1.14,1.67-2.22,2.4-3.4c0.28-0.46,0.18-1.13,0.36-1.66c0.13-0.37,0.38-0.76,0.69-0.98
			c2.64-1.9,5.7-2.68,8.8-3.44c4.67-1.15,9.03,0.67,13.51,1.25c0.5,0.06,1.33,1.11,1.24,1.54c-0.19,0.93-0.78,1.84-1.44,2.56
			c-0.19,0.21-1.29-0.12-1.74-0.49c-2.13-1.73-5.65-0.95-7.06,1.89c1.76,0,3.38,0,5.01,0c0.02,0.2,0.04,0.4,0.06,0.6
			c-1.05,0.19-2.1,0.38-3.15,0.57c-2.01,0.36-2.43,0.89-1.74,2.79c1.8,4.96,4.57,6.2,8.97,5.3c9.69-1.98,17.76-6.99,25.15-13.23
			c3.78-3.19,7.29-6.7,10.91-10.06c-0.01,0.18,0,0.63-0.09,1.05c-1.13,5.26-3.01,10.26-5.32,15.09c-0.47,0.98-1.69,1.81-2.76,2.24
			c-2.02,0.82-4.17,1.29-6.26,1.91c-0.32,0.1-0.64,0.2-0.97,0.66c2.26,0.14,4.53,0.29,7.04,0.45c-0.21,0.57-0.32,1.08-0.58,1.5
			c-2.84,4.59-6.22,8.7-10.5,12.07c-1.64,1.29-3.37,1.64-5.15,1.02c-2.6-0.9-4.76-0.42-7.17,0.81c-7.62,3.88-15.89,5.06-24.33,4.64
			c-6.95-0.35-13.54-2.45-19.85-5.35c-1.2-0.55-2.32-0.7-3.59-0.31c-1.04,0.32-2.18,0.35-3.2,0.71c-1.55,0.55-2.9,0.19-4.04-0.78
			c-4.56-3.88-8.71-8.13-11.75-13.34C27.85,88.19,27.82,87.99,27.61,87.33z"/>
		<path d="M100.76,105.98c-3.28,1.38-6.54,2.78-9.83,4.12c-3.08,1.25-6.2,2.38-9.26,3.67c-0.59,0.25-1.23,0.91-1.4,1.51
			c-1.65,5.7-3.27,11.41-4.77,17.15c-1.05,4.01-1.89,8.07-2.83,12.11c-0.02,0.07-0.14,0.12-0.35,0.27
			c-0.53-1.88-1.08-3.69-1.54-5.53c-1.91-7.71-3.83-15.42-5.64-23.16c-0.33-1.41-1.04-2.07-2.3-2.55c-5.79-2.2-11.55-4.45-17.32-6.7
			c-0.6-0.24-1.15-0.61-2.07-1.1c1.75-0.7,3.08-1.33,4.47-1.76c0.6-0.18,1.4-0.13,1.98,0.12c4.65,2.02,9.44,3.65,14.44,4.5
			c6.12,1.05,12.29,1.18,18.34-0.38c4.16-1.07,8.32-2.3,12.3-3.91c2.5-1.01,3.98,0.2,5.76,1.16
			C100.76,105.68,100.76,105.83,100.76,105.98z"/>
		<path d="M78.18,116.52c-2.39,1-4.77,2.03-7.17,3c-2.24,0.91-4.52,1.74-6.75,2.68c-0.43,0.18-0.9,0.67-1.02,1.1
			c-1.2,4.15-2.38,8.31-3.47,12.5c-0.76,2.92-1.38,5.88-2.06,8.82c-0.01,0.05-0.1,0.08-0.26,0.2c-0.38-1.37-0.79-2.69-1.12-4.03
			c-1.39-5.62-2.79-11.24-4.11-16.88c-0.24-1.03-0.76-1.51-1.67-1.86c-4.22-1.6-8.42-3.24-12.62-4.88c-0.44-0.17-0.84-0.44-1.51-0.8
			c1.27-0.51,2.24-0.97,3.26-1.28c0.44-0.13,1.02-0.09,1.44,0.09c3.39,1.47,6.88,2.66,10.52,3.28c4.46,0.76,8.96,0.86,13.37-0.27
			c3.03-0.78,6.06-1.67,8.96-2.85c1.82-0.74,2.9,0.14,4.2,0.84C78.18,116.3,78.18,116.41,78.18,116.52z"/>
		<g>
			<path d="M94.94,124.26c-0.45-1.02-1.07-1.76-1.87-2.22c-0.8-0.46-1.86-0.69-3.18-0.69c-1.3,0-2.37,0.3-3.23,0.91
				c-0.86,0.61-1.28,1.37-1.28,2.3c0,0.96,0.42,1.77,1.27,2.43c0.84,0.66,2.44,1.45,4.82,2.37c2.38,0.92,4.12,1.99,5.23,3.19
				c1.11,1.21,1.66,2.64,1.66,4.29c0,2.29-1.03,4.2-3.09,5.72c-2.06,1.52-4.64,2.28-7.73,2.28c-1.28,0-2.58-0.13-3.91-0.38
				c-1.33-0.25-9.77-4.08-10.95-4.55c0.32-0.85,0.57-1.59,0.76-2.22c0.19-0.63,0.38-1.37,0.56-2.23l0.93-0.02
				c0.52,1.3,8.45,5.72,9.41,6.32c0.96,0.6,2.21,0.91,3.77,0.91c1.47,0,2.69-0.35,3.67-1.04c0.98-0.69,1.47-1.56,1.47-2.61
				c0-0.97-0.45-1.8-1.34-2.5c-0.89-0.69-2.61-1.52-5.14-2.5c-2.28-0.87-3.95-1.9-5.03-3.07c-1.07-1.16-1.6-2.54-1.6-4.15
				c0-2.22,0.93-4.07,2.79-5.54c1.86-1.47,4.18-2.21,6.98-2.21c1.27,0,2.49,0.13,3.67,0.39c1.18,0.26,2.41,0.67,3.69,1.22
				c-0.33,0.67-0.6,1.26-0.8,1.75c-0.2,0.5-0.43,1.1-0.67,1.81L94.94,124.26z"/>
		</g>
	</g>
	<text transform="matrix(1 0 0 1 16.0535 165.8864)" class="st1 st2">TRANS TRADE</text>
	<g>
		<text transform="matrix(1 0 0 1 26.7888 182.4371)" class="st0 st1 st2">SOLUTIONS</text>
	</g>
</g>
</svg>
